<svg width="231.99999999999997" height="231.99999999999997" xmlns="http://www.w3.org/2000/svg" fill="none">
 <g>
  <title>Layer 1</title>
  <g id="svg_9">
   <path id="svg_3" fill="#151515" d="m119.361,157.068l-71.5552,0l-35.489,-61.5084l-11.8168,20.4387l35.4889,61.5087l71.5941,0l11.778,-20.439z"/>
   <path id="svg_4" fill="#151515" d="m112.587,74.9281l71.555,0l35.489,61.5089l11.817,-20.4389l-35.489,-61.5088l-71.594,0l-11.778,20.4388z"/>
   <path id="svg_5" fill="#151515" d="m82.1008,139.48l-35.7584,-61.9711l35.4889,-61.5089l-23.5951,0l-35.4889,61.5089l35.7583,61.9711l23.5952,0z"/>
   <path id="svg_6" fill="#151515" d="m149.846,92.5195l35.758,61.9705l-35.489,61.509l23.595,0l35.489,-61.509l-35.758,-61.9705l-23.595,0z"/>
   <path id="svg_7" fill="#151515" d="m78.714,98.4096l35.797,-61.9708l71.016,0l-11.817,-20.4388l-71.016,0l-35.7968,61.9708l11.8168,20.4388z"/>
   <path id="svg_8" fill="#151515" d="m153.233,133.591l-35.797,61.971l-71.0161,0l11.8168,20.438l71.0163,0l35.797,-61.97l-11.817,-20.439z"/>
  </g>
 </g>
</svg>